<?xml version="1.0" encoding="utf-8"?>
<!-- Generator: Adobe Illustrator 17.0.0, SVG Export Plug-In . SVG Version: 6.00 Build 0)  -->
<!DOCTYPE svg PUBLIC "-//W3C//DTD SVG 1.1//EN" "http://www.w3.org/Graphics/SVG/1.1/DTD/svg11.dtd">
<svg version="1.1" id="Layer_1" xmlns="http://www.w3.org/2000/svg" xmlns:xlink="http://www.w3.org/1999/xlink" x="0px" y="0px"
	 width="222px" height="43px" viewBox="0 0 222 43" enable-background="new 0 0 222 43" xml:space="preserve">
<g>
	<path fill="#FFFFFF" d="M1.814,17.306c0,0,9.065-2.228,20.896-6.479S47.481,0.639,47.481,0.639s-6.209,4-6.209,22
		s5.709,19.5,5.709,19.5s-12.271-6.25-24.334-10.688c-10.375-3.875-20.999-6.312-20.999-6.312s-1.259-1-1.209-4.166
		C0.481,18.306,1.814,17.306,1.814,17.306z"/>
	<path fill="#FFFFFF" d="M15.085,25.764c0,0-0.875,7.938,2,12.625c2.875,4.688,8.149,4.278,10.604,3.543
		c3.75-1.125,6.521-3.688,7.083-7.25c0.518-3.277-1.708-3.625-1.708-3.625s-0.427,5.512-3.834,7.375
		c-3.125,1.707-6.603,1.938-8.833-0.293c-2.958-2.957-2.75-7.688-2.375-10.062S15.085,25.764,15.085,25.764z"/>
</g>
<g>
	<g>
		<path fill="#FFFFFF" d="M56.931,12.477l2.373,18.966l-4.81-0.248l-0.188-3.352l-1.658-0.053l-0.334,3.292l-4.717-0.237
			l2.637-18.019L56.931,12.477z M54.242,24.551c-0.198-2.103-0.389-4.697-0.57-7.779c-0.535,3.548-0.875,6.128-1.024,7.757
			L54.242,24.551z"/>
		<path fill="#FFFFFF" d="M65.262,12.036l-0.268,15.765l2.982,0.098l-0.067,4.006l-7.798-0.42l0.331-19.191L65.262,12.036z"/>
		<path fill="#FFFFFF" d="M69.447,11.815l8.413-0.453l-0.068,4.219L74.39,15.69l-0.064,3.927l3.181-0.037l-0.065,4.003l-3.181-0.028
			l-0.075,4.547l3.739,0.127l-0.068,4.221l-8.747-0.482L69.447,11.815z"/>
		<path fill="#FFFFFF" d="M79.688,11.263l3.688-0.202c2.493-0.136,4.192-0.125,5.08,0.04c0.898,0.164,1.622,0.668,2.178,1.516
			c0.557,0.853,0.82,2.244,0.791,4.173c-0.027,1.758-0.249,2.943-0.662,3.55c-0.409,0.604-1.207,0.965-2.385,1.086
			c1.062,0.286,1.771,0.67,2.133,1.152c0.362,0.484,0.585,0.93,0.668,1.335c0.084,0.407,0.111,1.521,0.083,3.343l-0.093,5.954
			l-4.987-0.289l0.116-7.315c0.019-1.179-0.057-1.91-0.227-2.19c-0.167-0.283-0.619-0.429-1.345-0.433l-0.157,9.847l-5.225-0.296
			L79.688,11.263z M84.856,14.72l-0.077,4.861c0.595-0.006,1.013-0.098,1.255-0.278c0.245-0.18,0.375-0.755,0.39-1.726l0.02-1.212
			c0.011-0.699-0.099-1.154-0.328-1.363C85.886,14.792,85.469,14.698,84.856,14.72z"/>
		<path fill="#FFFFFF" d="M104.911,9.869l-0.072,4.835l-3.378,0.111l-0.288,18.99l-5.583-0.334l0.284-18.475l-3.249,0.106
			l0.071-4.552L104.911,9.869z"/>
		<path fill="#FFFFFF" d="M123.829,16.788l-5.657,0.117l0.027-1.909c0.014-0.891-0.053-1.455-0.19-1.693
			c-0.138-0.24-0.376-0.351-0.712-0.338c-0.359,0.015-0.637,0.189-0.824,0.522c-0.19,0.332-0.291,0.83-0.3,1.49
			c-0.013,0.853,0.081,1.493,0.282,1.92c0.195,0.427,0.752,0.938,1.679,1.538c2.669,1.753,4.363,3.227,5.054,4.391
			c0.697,1.171,1.024,3.054,0.988,5.648c-0.027,1.887-0.244,3.267-0.65,4.14c-0.408,0.866-1.178,1.567-2.311,2.099
			c-1.125,0.523-2.427,0.734-3.898,0.635c-1.604-0.104-2.957-0.527-4.07-1.262c-1.105-0.729-1.828-1.607-2.155-2.641
			c-0.329-1.028-0.477-2.473-0.45-4.334l0.024-1.627l5.499,0.111l-0.045,3.102c-0.016,0.955,0.054,1.572,0.206,1.853
			c0.151,0.281,0.43,0.431,0.827,0.449c0.397,0.017,0.701-0.146,0.898-0.485c0.201-0.342,0.309-0.856,0.319-1.543
			c0.022-1.521-0.154-2.518-0.519-2.99c-0.373-0.476-1.297-1.266-2.771-2.365c-1.463-1.096-2.423-1.88-2.89-2.365
			c-0.471-0.483-0.854-1.15-1.153-1.998c-0.299-0.847-0.438-1.928-0.419-3.249c0.028-1.903,0.27-3.304,0.726-4.206
			c0.454-0.904,1.18-1.634,2.18-2.19c1.005-0.562,2.213-0.886,3.636-0.972c1.563-0.093,2.901,0.11,4.007,0.615
			c1.107,0.51,1.838,1.194,2.193,2.049c0.352,0.86,0.512,2.342,0.482,4.443L123.829,16.788z"/>
		<path fill="#FFFFFF" d="M126.396,8.642l10.576-0.618l-0.076,5.619l-4.282,0.143l-0.072,5.218l4.007-0.037l-0.074,5.33
			l-4.006-0.058l-0.084,6.046l4.711,0.197l-0.078,5.619l-10.998-0.729L126.396,8.642z"/>
		<path fill="#FFFFFF" d="M154.236,6.997l-0.396,30.267l-5.969-0.418l-3.305-13.436l-0.178,13.191l-5.502-0.375l0.387-28.339
			l5.506-0.324l3.58,13.078l0.178-13.302L154.236,6.997z"/>
		<path fill="#FFFFFF" d="M157.014,6.83l5.254-0.318c3.443-0.209,5.791-0.169,7.021,0.13c1.231,0.3,2.174,0.863,2.81,1.688
			c0.639,0.83,1.034,1.773,1.188,2.828c0.146,1.056,0.205,3.14,0.166,6.254l-0.145,11.503c-0.035,2.946-0.183,4.913-0.432,5.892
			c-0.255,0.979-0.677,1.726-1.275,2.242c-0.597,0.516-1.33,0.854-2.197,1.01c-0.868,0.156-2.162,0.17-3.881,0.045l-8.904-0.643
			L157.014,6.83z M163.988,11.807l-0.266,20.765c1.024,0.054,1.664-0.153,1.909-0.62c0.243-0.47,0.38-1.767,0.406-3.89l0.157-12.381
			c0.019-1.445-0.012-2.369-0.084-2.772c-0.073-0.405-0.256-0.697-0.534-0.877C165.299,11.852,164.766,11.778,163.988,11.807z"/>
		<path fill="#FFFFFF" d="M176.357,5.647l12.672-0.792l-0.084,7.007l-5.137,0.18l-0.08,6.5l4.808-0.039l-0.081,6.647l-4.805-0.088
			l-0.094,7.531l5.653,0.281l-0.084,7.01l-13.183-1.01L176.357,5.647z"/>
		<path fill="#FFFFFF" d="M191.793,4.681l5.604-0.354c3.791-0.242,6.387-0.231,7.75,0.036c1.365,0.268,2.479,1.112,3.332,2.535
			c0.855,1.429,1.266,3.768,1.229,7.005c-0.034,2.956-0.364,4.945-0.994,5.96c-0.628,1.011-1.845,1.613-3.645,1.805
			c1.623,0.486,2.714,1.141,3.268,1.954c0.557,0.819,0.898,1.569,1.027,2.249c0.132,0.686,0.177,2.559,0.142,5.621l-0.114,10.007
			l-7.625-0.619l0.145-12.239c0.021-1.973-0.096-3.193-0.354-3.668c-0.256-0.476-0.943-0.723-2.053-0.738l-0.193,16.451
			l-7.939-0.627L191.793,4.681z M199.666,10.429l-0.096,8.123c0.902-0.007,1.545-0.16,1.914-0.458s0.562-1.261,0.58-2.885
			l0.022-2.029c0.015-1.169-0.151-1.93-0.5-2.281C201.236,10.548,200.598,10.392,199.666,10.429z"/>
		<path fill="#FFFFFF" d="M221.814,2.75l-1.688,29.866l-6.31-0.294l-0.989-28.986L221.814,2.75z M220.786,34.507l-0.089,7.929
			l-7.653-0.638l0.088-7.7L220.786,34.507z"/>
	</g>
</g>
</svg>
