<?xml version="1.0" encoding="utf-8"?>
<!-- Generator: Adobe Illustrator 17.0.0, SVG Export Plug-In . SVG Version: 6.00 Build 0)  -->
<!DOCTYPE svg PUBLIC "-//W3C//DTD SVG 1.1//EN" "http://www.w3.org/Graphics/SVG/1.1/DTD/svg11.dtd">
<svg version="1.1" id="Livello_1" xmlns="http://www.w3.org/2000/svg" xmlns:xlink="http://www.w3.org/1999/xlink" x="0px" y="0px"
	 width="230px" height="50px" viewBox="0 0 230 50" enable-background="new 0 0 230 50" xml:space="preserve">
<g>
	<path fill="#FFFFFF" d="M5.638,21.167c0,0,9.065-2.227,20.896-6.479S51.305,4.5,51.305,4.5s-6.209,4-6.209,22S50.805,46,50.805,46
		s-12.271-6.25-24.334-10.688C16.096,31.438,5.472,29,5.472,29s-1.259-1-1.209-4.167C4.305,22.167,5.638,21.167,5.638,21.167z"/>
	<path fill="#FFFFFF" d="M18.908,29.625c0,0-0.875,7.938,2,12.625s8.149,4.278,10.604,3.542c3.75-1.125,6.521-3.688,7.083-7.25
		c0.518-3.277-1.708-3.625-1.708-3.625s-0.427,5.513-3.834,7.375C29.929,44,26.451,44.23,24.221,42
		c-2.958-2.958-2.75-7.688-2.375-10.062S18.908,29.625,18.908,29.625z"/>
</g>
<g>
	<g>
		<path fill="#FFFFFF" d="M66.971,21.931c-2.364,0.062-3.548,0.093-5.921,0.154c0.001-0.555,0.002-0.838,0.003-1.422
			c0.001-0.681-0.074-1.139-0.225-1.328c-0.151-0.19-0.406-0.28-0.76-0.266c-0.385,0.016-0.675,0.163-0.874,0.434
			s-0.297,0.667-0.298,1.174c-0.001,0.652,0.115,1.117,0.331,1.422c0.212,0.3,0.814,0.665,1.803,1.08
			c2.838,1.193,4.622,2.222,5.352,3.036c0.732,0.816,1.097,2.117,1.091,4.08c-0.004,1.426-0.212,2.564-0.621,3.304
			c-0.41,0.74-1.199,1.37-2.369,1.867c-1.17,0.497-2.531,0.721-4.085,0.643c-1.705-0.086-3.163-0.499-4.371-1.191
			c-1.209-0.693-2.001-1.504-2.376-2.385c-0.375-0.879-0.562-2.045-0.562-3.385c0-0.469,0-0.697,0-1.146
			c2.382,0.05,3.571,0.074,5.944,0.123c-0.002,0.873-0.002,1.318-0.004,2.261c-0.001,0.725,0.082,1.224,0.249,1.453
			c0.166,0.227,0.462,0.353,0.885,0.372c0.424,0.018,0.74-0.113,0.948-0.385c0.208-0.273,0.312-0.682,0.313-1.21
			c0.003-1.162-0.192-1.869-0.587-2.206c-0.398-0.34-1.4-0.91-2.984-1.662c-1.588-0.754-2.646-1.274-3.163-1.597
			s-0.946-0.765-1.288-1.34c-0.341-0.574-0.511-1.312-0.511-2.286c0-1.405,0.243-2.584,0.727-3.381
			c0.483-0.795,1.267-1.486,2.344-2.022c1.079-0.536,2.379-0.855,3.901-0.928c1.662-0.08,3.077,0.13,4.242,0.605
			c1.165,0.475,1.935,1.089,2.312,1.818s0.561,1.958,0.557,3.537C66.972,21.468,66.972,21.623,66.971,21.931z"/>
		<path fill="#FFFFFF" d="M69.513,15.248c4.239-0.208,6.351-0.312,10.561-0.522c-0.005,1.985-0.007,2.897-0.012,4.655
			c-1.686,0.065-2.53,0.097-4.219,0.161c-0.005,1.635-0.008,2.4-0.013,3.916c1.581-0.025,2.371-0.037,3.949-0.062
			c-0.005,1.562-0.007,2.321-0.012,3.876c-1.578-0.018-2.368-0.027-3.95-0.045c-0.006,1.748-0.009,2.624-0.015,4.519
			c1.859,0.071,2.787,0.106,4.642,0.177c-0.005,1.761-0.007,2.674-0.012,4.659c-4.383-0.216-6.579-0.325-10.982-0.544
			C69.475,26.166,69.488,25.121,69.513,15.248z"/>
		<path fill="#FFFFFF" d="M96.327,13.905c-0.005,9.993-0.007,13.465-0.012,23.457c-2.204-0.107-3.307-0.161-5.515-0.269
			c-1.304-4.596-1.955-6.568-3.257-10.479c-0.008,3.902-0.012,5.793-0.021,10.318c-2.108-0.103-3.163-0.155-5.274-0.259
			c0.024-9.93,0.035-12.128,0.059-22.058c2.108-0.105,3.16-0.158,5.261-0.264c1.401,4.411,2.102,6.252,3.505,10.197
			c0.006-3.957,0.009-5.886,0.015-10.375C93.187,14.066,94.234,14.012,96.327,13.905z"/>
		<path fill="#FFFFFF" d="M98.84,13.777c1.87-0.096,2.804-0.144,4.671-0.24c3.014-0.156,5.049-0.116,6.109,0.118
			c1.061,0.234,1.869,0.668,2.422,1.301c0.554,0.635,0.903,1.356,1.043,2.163c0.142,0.807,0.215,2.403,0.223,4.784
			c0.012,3.524,0.017,5.285,0.029,8.81c0.007,2.258-0.09,3.764-0.29,4.516c-0.201,0.753-0.555,1.331-1.058,1.737
			c-0.504,0.406-1.129,0.676-1.873,0.81c-0.742,0.135-1.864,0.167-3.362,0.094c-3.163-0.153-4.746-0.23-7.916-0.384
			C98.839,27.482,98.84,23.781,98.84,13.777z M105.088,17.687c0.009,6.433,0.013,9.437,0.022,15.869
			c0.903,0.036,1.458-0.127,1.665-0.488c0.208-0.36,0.31-1.362,0.307-2.987c-0.007-3.786-0.01-5.647-0.017-9.438
			c-0.002-1.105-0.038-1.816-0.107-2.126c-0.07-0.31-0.23-0.535-0.476-0.67C106.235,17.712,105.77,17.658,105.088,17.687z"/>
		<path fill="#FFFFFF" d="M115.598,12.907c4.148-0.217,6.219-0.327,10.359-0.546c0.013,2.026,0.02,3.07,0.034,5.183
			c-1.66,0.069-2.49,0.103-4.15,0.171c0.011,1.971,0.016,2.969,0.027,4.966c1.556-0.028,2.334-0.042,3.889-0.071
			c0.013,2.045,0.019,3.076,0.032,5.124c-1.557-0.014-2.336-0.021-3.894-0.035c0.012,2.319,0.018,3.478,0.031,5.764
			c1.833,0.066,2.75,0.1,4.582,0.166c0.014,2.116,0.021,3.161,0.034,5.188c-4.335-0.206-6.504-0.309-10.845-0.518
			C115.657,28.22,115.637,22.986,115.598,12.907z"/>
		<path fill="#FFFFFF" d="M128.154,12.244c1.757-0.093,2.636-0.14,4.393-0.234c2.928-0.156,4.91-0.143,5.949,0.044
			c1.04,0.188,1.892,0.761,2.555,1.766c0.665,1.004,1.009,2.679,1.032,5.112c0.021,2.222-0.195,3.769-0.65,4.553
			c-0.457,0.787-2.723,1.425-2.723,1.425c-0.002,0.026,2.069,0.856,2.497,1.481c0.429,0.626,0.698,1.203,0.807,1.726
			c0.109,0.524,0.174,1.979,0.196,4.277c0.029,3.005,0.044,4.475,0.073,7.165c-2.319-0.109-3.479-0.163-5.798-0.272
			c-0.032-3.38-0.048-5.236-0.079-8.978c-0.013-1.507-0.124-2.454-0.328-2.818c-0.205-0.364-0.737-0.547-1.596-0.551
			c0.041,5.085,0.061,7.674,0.102,12.257c-2.498-0.118-3.748-0.177-6.247-0.295C128.264,28.766,128.227,22.38,128.154,12.244z
			 M134.397,16.406c0.02,2.402,0.03,3.648,0.05,6.147c0.698-0.013,1.189-0.134,1.468-0.367c0.279-0.232,0.414-0.977,0.404-2.211
			c-0.005-0.616-0.008-0.923-0.013-1.533c-0.008-0.879-0.148-1.442-0.421-1.699C135.612,16.486,135.117,16.374,134.397,16.406z"/>
		<path fill="#FFFFFF" d="M160.484,10.5c1.424,10.015,2.541,20.067,3.944,30.084c-2.556-0.117-3.834-0.176-6.388-0.294
			c-0.159-1.852-0.239-2.864-0.398-4.965c-0.893-0.033-1.34-0.049-2.233-0.082c-0.125,2.076-0.188,3.074-0.313,4.911
			c-2.584-0.119-3.876-0.179-6.459-0.3c1.025-9.615,1.863-19.248,2.856-28.866C155.086,10.795,156.884,10.697,160.484,10.5z
			 M157.415,29.963c-0.357-3.524-1.099-13.023-1.099-13.023c-0.022,0-0.917,10.266-1.049,12.988
			C156.126,29.942,156.556,29.949,157.415,29.963z"/>
		<path fill="#FFFFFF" d="M171.346,9.905c0.128,8.264,0.193,15.447,0.321,25.304c1.522,0.052,2.283,0.077,3.806,0.129
			c0.032,2.496,0.049,3.682,0.081,5.753c-4.028-0.183-6.04-0.274-10.062-0.458c-0.139-10.128-0.248-20.257-0.387-30.386
			C167.598,10.111,168.846,10.042,171.346,9.905z"/>
		<path fill="#FFFFFF" d="M176.665,9.613c4.177-0.23,6.27-0.346,10.469-0.578c0.032,2.082,0.047,3.303,0.079,5.891
			c-1.679,0.074-2.518,0.11-4.194,0.183c0.031,2.422,0.046,3.73,0.076,6.372c1.569-0.033,2.354-0.049,3.926-0.082
			c0.03,2.691,0.045,4.087,0.075,6.795c-1.571-0.01-2.356-0.015-3.924-0.024c0.035,3.082,0.053,4.621,0.089,7.429
			c1.842,0.062,2.763,0.092,4.608,0.153c0.031,2.592,0.047,3.814,0.079,5.896c-4.356-0.195-6.531-0.293-10.876-0.489
			C176.923,30.644,176.813,20.128,176.665,9.613z"/>
		<path fill="#FFFFFF" d="M189.366,8.911c1.785-0.099,2.678-0.148,4.468-0.247c2.983-0.165,5.013-0.156,6.076,0.039
			c1.063,0.196,1.935,0.792,2.618,1.922c0.683,1.131,1.035,3.076,1.061,6.123c0.024,2.783-0.196,4.807-0.66,5.827
			c-0.464,1.023-2.767,1.857-2.767,1.857c-0.004,0.043,2.105,1.117,2.542,1.93c0.439,0.815,0.713,1.564,0.823,2.242
			c0.111,0.679,0.179,2.588,0.203,5.457c0.032,3.751,0.048,5.527,0.081,8.291c-2.345-0.103-3.516-0.155-5.856-0.258
			c-0.046-3.474-0.069-5.818-0.116-10.62c-0.019-1.933-0.132-3.18-0.341-3.654c-0.209-0.475-0.749-0.714-1.618-0.715
			c0.065,6.675,0.097,10.194,0.162,14.904c-2.518-0.112-3.776-0.168-6.29-0.28C189.61,30.791,189.508,19.851,189.366,8.911z
			 M195.745,13.599c0.032,2.878,0.048,4.492,0.08,7.749c0.709-0.015,1.207-0.172,1.487-0.473c0.283-0.302,0.416-1.272,0.401-2.842
			c-0.008-0.784-0.011-1.171-0.019-1.931c-0.011-1.096-0.158-1.776-0.436-2.088C196.98,13.702,196.474,13.565,195.745,13.599z"/>
		<path fill="#FFFFFF" d="M218.88,7.276c0.011,2.112,0.016,3.423,0.026,6.254c-1.526,0.067-2.288,0.101-3.809,0.168
			c0.048,9.718,0.088,19.437,0.147,29.155c-2.536-0.11-3.802-0.165-6.331-0.276c-0.083-9.532-0.14-19.064-0.206-28.596
			c-1.508,0.067-2.261,0.1-3.766,0.166c-0.024-2.725-0.035-3.996-0.059-6.095C210.451,7.743,213.248,7.588,218.88,7.276z"/>
		<path fill="#FFFFFF" d="M226.987,6.826c-0.42,9.472-0.692,18.951-1.002,28.427c-1.897-0.05-2.844-0.076-4.735-0.126
			c-0.429-11.177-0.646-19.995-1.085-27.923C222.886,7.054,224.25,6.978,226.987,6.826z M226.487,36.998
			c0.001,2.889,0.001,4.221,0.002,6.341c-2.288-0.098-3.43-0.147-5.712-0.246c-0.008-2.114-0.013-3.43-0.021-6.275
			C223.045,36.89,224.191,36.926,226.487,36.998z"/>
	</g>
</g>
</svg>
